# AST/ASF file generated using VICON BodyLanguage
# -----------------------------------------------
:version 1.10
:name VICON
:units
  mass 1.0
  length 0.45
  angle deg
:documentation
   .ast/.asf automatically generated from VICON data using
   VICON BodyBuilder and BodyLanguage model FoxedUp or BRILLIANT.MOD
:root
   order TX TY TZ RX RY RZ
   axis XYZ
   position 0 0 0  
   orientation 0 0 0 
:bonedata
  begin
     id 1 
     name lhipjoint
     direction 0.561001 -0.76473 0.316963 
     length 2.4722 
     axis 0 0 0  XYZ
  end
  begin
     id 2 
     name lfemur
     direction 0.34202 -0.939693 0  
     length 7.59403  
     axis 0 0 20  XYZ
    dof rx ry rz
    limits (-160.0 20.0)
           (-70.0 70.0)
           (-60.0 70.0)
  end
  begin
     id 3 
     name ltibia
     direction 0.34202 -0.939693 0   
     length 7.89655   
     axis 0 0 20   XYZ
    dof rx
    limits (-10.0 170.0)
  end
  begin
     id 4 
     name lfoot
     direction 0.061296 -0.168409 0.98381   
     length 2.73287   
     axis -90 7.62852e-016 20   XYZ
    dof rx rz
    limits (-45.0 90.0)
           (-70.0 20.0)
  end
  begin
     id 5 
     name ltoes
     direction 1.53547e-011 -4.21984e-011 1   
     length 1.37057   
     axis -90 7.62852e-016 20   XYZ
    dof rx
    limits (-90.0 20.0)
  end
  begin
     id 6 
     name rhipjoint
     direction -0.559611 -0.765599 0.317323   
     length 2.46939  
     axis 0 0 0  XYZ 
  end
  begin
     id 7 
     name rfemur
     direction -0.34202 -0.939693 0   
     length 7.53712   
     axis 0 0 -20   XYZ
    dof rx ry rz
    limits (-160.0 20.0)
           (-70.0 70.0)
           (-70.0 60.0)
  end
  begin
     id 8 
     name rtibia
     direction -0.34202 -0.939693 0   
     length 8.12549   
     axis 0 0 -20   XYZ
    dof rx
    limits (-10.0 170.0)
 end
 begin
     id 9 
     name rfoot
     direction -0.066984 -0.184037 0.980634   
     length 2.67541  
     axis -90 -7.62852e-016 -20   XYZ
    dof rx rz
    limits (-45.0 90.0)
           (-20.0 70.0)
  end
  begin
     id 10 
     name rtoes
     direction -1.53549e-011 -4.21786e-011 1   
     length 1.34085   
     axis -90 -7.62852e-016 -20   XYZ
    dof rx
    limits (-90.0 20.0)
  end
  begin
     id 11 
     name lowerback
     direction -0.0522728 0.992594 -0.109658   
     length 2.05633   
     axis 0 0 0   XYZ
    dof rx ry rz
    limits (-20.0 45.0)
           (-30.0 30.0)
           (-30.0 30.0)
  end
  begin
     id 12 
     name upperback
     direction 0.00589338 0.999977 0.00335704   
     length 2.05845   
     axis 0 0 0   XYZ
    dof rx ry rz
    limits (-20.0 45.0)
           (-30.0 30.0)
           (-30.0 30.0)
  end
  begin
     id 13 
     name thorax
     direction 0.0292928 0.998059 0.0549487   
     length 2.09281   
     axis 0 0 0   XYZ
    dof rx ry rz
    limits (-20.0 45.0)
           (-30.0 30.0)
           (-30.0 30.0)
  end
  begin
     id 14 
     name lowerneck
     direction 0.0356368 0.980775 0.191858   
     length 1.84767   
     axis 0 0 0   XYZ
    dof rx ry rz
    limits (-20.0 45.0)
           (-30.0 30.0)
           (-30.0 30.0)
  end
  begin
     id 15 
     name upperneck
     direction -0.0227605 0.98931 -0.14404   
     length 1.89582   
     axis 0 0 0   XYZ
    dof rx ry rz
    limits (-20.0 45.0)
           (-30.0 30.0)
           (-30.0 30.0)
  end
  begin
     id 16
     name head
     direction -0.00932985 0.997511 -0.0698904  
     length 1.90213  
     axis 0 0 0   XYZ
    dof rx ry rz
    limits (-20.0 45.0)
           (-30.0 30.0)
           (-30.0 30.0)
  end
  begin
     id 17 
     name lclavicle
     direction 0.873442 0.479511 0.0846686  
     length 3.41193  
     axis 0 0 0   XYZ
    dof ry rz
    limits (-20.0 10.0)
           (0.0 20.0)
  end
  begin
     id 18 
     name lhumerus
     direction 1 -4.4897e-011 -5.62117e-018   
     length 5.59864   
     axis 180 -30 -90   XYZ
    dof rx ry rz
    limits (-60.0 90.0)
           (-90.0 90.0)
           (-90.0 90.0)
  end
  begin
     id 19
     name lradius
     direction 1 -4.48966e-011 -6.26295e-027   
     length 3.59542   
     axis 180 -30 -90   XYZ
    dof rx
    limits (-10.0 170.0)
  end
  begin
     id 20
     name lwrist
     direction 1 -4.48947e-011 -1.74096e-026   
     length 1.79771   
     axis 1.04567e-014 90 90   XYZ
    dof ry
    limits (-180.0 0.0)
 end
  begin
     id 21 
     name lhand
     direction 1 -4.49085e-011 -3.48469e-026   
     length 0.572014   
     axis 2.22196e-014 90 90   XYZ
    dof rx rz
    limits (-90.0 90.0)
           (-45.0 45.0)
  end
  begin
     id 22 
     name lfingers
     direction 1 -4.48884e-011 -6.96135e-026   
     length 0.461173   
     axis 4.44383e-014 90 90   XYZ
    dof rx
    limits (0.0 90.0)
  end
  begin
     id 23
     name lthumb
     direction 0.707107 -6.34976e-011 0.707107   
     length 0.662154   
     axis -90 45 -5.4397e-014   XYZ
    dof rx rz
    limits (-45.0 45.0)
           (-45.0 45.0)
  end
  begin
     id 24 
     name rclavicle
     direction -0.890242 0.443271 0.104786   
     length 3.46753  
     axis 0 0 0   XYZ 
    dof ry rz
    limits (-10.0 20.0)
           (-20.0 0.0)
  end
  begin
     id 25 
     name rhumerus
     direction -1 -4.48963e-011 -5.41723e-018  
     length 5.8094   
     axis 180 30 90   XYZ
    dof rx ry rz
    limits (-90.0 60.0)
           (-90.0 90.0)
           (-90.0 90.0)
  end
  begin
     id 26 
     name rradius
     direction -1 -4.48958e-011 -6.51059e-027   
     length 3.66953   
     axis 180 30 90   XYZ
    dof rx
    limits (-10.0 170.0)
  end
  begin
     id 27 
     name rwrist
     direction -1 -4.48975e-011 -1.74124e-026   
     length 1.83476   
     axis 1.04567e-014 -90 -90   XYZ
    dof ry
    limits (-180.0 0.0)
  end
  begin
     id 28
     name rhand
     direction -1 -4.49013e-011 -3.48326e-026   
     length 0.57843   
     axis 2.22196e-014 -90 -90   XYZ
    dof rx rz
    limits (-90.0 90.0)
           (-45.0 45.0)
  end
  begin
     id 29
     name rfingers
     direction -1 -4.49023e-011 -6.9669e-026   
     length 0.466345   
     axis 4.44383e-014 -90 -90   XYZ
    dof rx
    limits (0.0 90.0)
  end
  begin
     id 30
     name rthumb
     direction -0.707107 -6.34926e-011 0.707107   
     length 0.669581   
     axis -90 -45 5.4397e-014   XYZ
    dof rx rz
    limits (-45.0 45.0)
           (-45.0 45.0)
  end
:hierarchy
  begin
    root lhipjoint rhipjoint lowerback
    lhipjoint lfemur
    lfemur ltibia
    ltibia lfoot
    lfoot ltoes
    rhipjoint rfemur
    rfemur rtibia
    rtibia rfoot
    rfoot rtoes
    lowerback upperback
    upperback thorax
    thorax lowerneck lclavicle rclavicle
    lowerneck upperneck
    upperneck head
    lclavicle lhumerus
    lhumerus lradius
    lradius lwrist
    lwrist lhand lthumb
    lhand lfingers
    rclavicle rhumerus
    rhumerus rradius
    rradius rwrist
    rwrist rhand rthumb
    rhand rfingers
  end

#!OML:ASF H:\SkateBoarding\Project 1\Capture day 1\Session 1\Skater.ASF
:FULLY-SPECIFIED
:DEGREES
1
root 22.9755 19.1189 -23.785 -3.24465 41.8162 -4.34727
lowerback 13.3944 -0.161339 -5.38151
upperback 0.239295 -1.0308 -0.0301926
thorax -7.1833 -0.308451 3.20971
lowerneck -18.1839 -5.28214 -1.03838
upperneck 37.328 -8.57279 3.30633
head 16.7814 -3.04132 0.0283382
rclavicle 2.5345e-014 -2.06736e-014
rhumerus -34.7654 19.166 -98.1799
rradius 53.7698
rwrist -8.82918
rhand -41.1107 7.90147
rfingers 7.12502
rthumb -14.0383 -21.6044
lclavicle 2.5345e-014 -2.06736e-014
lhumerus -45.3959 -14.5847 88.8402
lradius 66.2837
lwrist 19.9786
lhand -23.3928 4.20174
lfingers 7.12502
lthumb 3.06373 34.1595
rfemur -21.6762 -0.692772 23.6024
rtibia 43.609
rfoot -29.0595 1.99592
rtoes -18.8106
lfemur -3.29787 6.33682 -15.3885
ltibia 44.126
lfoot -49.5193 4.60333
ltoes -8.27673
2
root 22.9896 19.1297 -23.4745 -3.29616 40.8016 -4.34802
lowerback 13.4586 -0.0563979 -5.28327
upperback 0.213257 -0.880896 -0.0171973
thorax -7.26269 -0.236154 3.14076
lowerneck -18.2653 -5.12883 -0.990987
upperneck 37.1831 -8.31725 3.20295
head 16.7055 -2.95249 0.021809
rclavicle 4.87022e-015 1.74931e-014
rhumerus -34.8432 19.3768 -98.4145
rradius 53.7195
rwrist -8.97923
rhand -41.3555 7.58494
rfingers 7.12502
rthumb -14.2742 -21.9045
lclavicle 4.87022e-015 1.74931e-014
lhumerus -45.8599 -13.7165 88.2563
lradius 65.6036
lwrist 19.6874
lhand -23.2879 3.73519
lfingers 7.12502
lthumb 3.1651 33.6914
rfemur -21.2103 -0.194915 23.832
rtibia 43.2222
rfoot -28.4961 2.33756
rtoes -19.2258
lfemur -3.66896 6.80007 -15.0926
ltibia 45.6673
lfoot -49.0799 4.05546
ltoes -7.91053
3
root 22.9997 19.1433 -23.1635 -3.31664 39.816 -4.39514
lowerback 13.4803 0.0373109 -5.22589
upperback 0.163394 -0.748613 0.0216328
thorax -7.34101 -0.170359 3.12507
lowerneck -18.2378 -4.96813 -0.881462
upperneck 36.9747 -8.04711 3.04744
head 16.5629 -2.86084 -0.0119849
rclavicle -2.20651e-014 -2.94201e-014
rhumerus -34.9925 19.6112 -98.684
rradius 53.6968
rwrist -9.27798
rhand -41.5073 7.35459
rfingers 7.12502
rthumb -14.4205 -22.1244
lclavicle -2.20651e-014 -2.94201e-014
lhumerus -46.3901 -12.8326 87.7148
lradius 65.0323
lwrist 19.3711
lhand -23.2173 3.44916
lfingers 7.12502
lthumb 3.23322 33.4044
rfemur -20.7704 0.378855 24.1279
rtibia 42.7682
rfoot -27.9198 2.58501
rtoes -19.5823
lfemur -4.23525 7.24357 -14.7015
ltibia 47.4084
lfoot -48.4977 2.74223
ltoes -5.83491
4
root 23.0112 19.1642 -22.8529 -3.23572 38.8805 -4.35478
lowerback 13.4683 0.104453 -5.24158
upperback 0.108501 -0.659252 0.0841869
thorax -7.40082 -0.122855 3.18379
lowerneck -18.1564 -4.77988 -0.920944
upperneck 36.7121 -7.71143 2.9794
head 16.3934 -2.7527 0.0321647
rclavicle 1.01678e-013 -1.90833e-014
rhumerus -35.167 19.8993 -98.8864
rradius 53.6998
rwrist -9.58927
rhand -41.5723 7.2308
rfingers 7.12502
rthumb -14.4831 -22.2437
lclavicle 1.01678e-013 -1.90833e-014
lhumerus -46.9095 -11.9681 87.2312
lradius 64.4973
lwrist 19.2648
lhand -23.0893 3.16165
lfingers 7.12502
lthumb 3.35683 33.115
rfemur -20.2915 0.877721 24.3407
rtibia 42.2029
rfoot -27.2717 2.68371
rtoes -20.2635
lfemur -4.88623 7.73036 -14.3526
ltibia 49.1283
lfoot -47.6718 1.76562
ltoes -3.89245
5
root 23.0222 19.1896 -22.5452 -3.2151 37.9776 -4.34863
lowerback 13.5712 0.256176 -5.14565
upperback 0.0883381 -0.448745 0.101261
thorax -7.50066 -0.0207477 3.10799
lowerneck -18.2027 -4.71101 -0.889842
upperneck 36.4564 -7.58325 2.90182
head 16.2624 -2.71759 0.0161903
rclavicle -3.0911e-014 2.62396e-014
rhumerus -35.2557 19.8945 -98.9813
rradius 53.6907
rwrist -9.82091
rhand -41.8878 6.93108
rfingers 7.12502
rthumb -14.7871 -22.5214
lclavicle -3.0911e-014 2.62396e-014
lhumerus -47.5128 -11.569 86.8632
lradius 64.3834
lwrist 19.4096
lhand -23.0185 3.23477
lfingers 7.12502
lthumb 3.42528 33.187
rfemur -19.7277 1.56198 24.5474
rtibia 41.4934
rfoot -27.0723 2.3209
rtoes -20.4233
lfemur -5.59729 8.07207 -13.9664
ltibia 50.9533
lfoot -46.5848 1.54773
ltoes -2.46378
6
root 23.0338 19.2321 -22.2354 -3.20614 37.1445 -4.36771
lowerback 13.6792 0.39619 -5.09031
upperback 0.0752012 -0.257008 0.157005
thorax -7.59334 0.0740085 3.09944
lowerneck -18.2277 -4.65305 -0.950622
upperneck 36.1992 -7.46394 2.89194
head 16.1363 -2.68892 0.0442731
rclavicle -4.47266e-014 3.97569e-015
rhumerus -35.3056 19.8357 -98.9808
rradius 53.6086
rwrist -10.2292
rhand -41.8952 7.55596
rfingers 7.12502
rthumb -14.7942 -21.896
lclavicle -4.47266e-014 3.97569e-015
lhumerus -47.8978 -11.1669 86.5238
lradius 63.9221
lwrist 19.3485
lhand -22.4732 3.22528
lfingers 7.12502
lthumb 3.95183 33.1684
rfemur -19.0372 2.15612 24.7521
rtibia 40.581
rfoot -26.3111 2.31984
rtoes -20.1167
lfemur -6.4137 8.43373 -13.4532
ltibia 52.835
lfoot -44.708 3.88774
ltoes -3.99139
7
root 23.0529 19.2751 -21.9296 -3.09956 36.5161 -4.42659
lowerback 13.6846 0.41688 -4.88032
upperback 0.0297784 -0.192969 0.22833
thorax -7.65111 0.100657 3.04424
lowerneck -18.2216 -4.56547 -1.05057
upperneck 35.936 -7.26846 2.84032
head 15.9978 -2.64056 0.0764175
rclavicle -4.30369e-014 -8.74653e-015
rhumerus -35.4261 19.97 -99.0078
rradius 53.5728
rwrist -10.4669
rhand -42.1935 7.27265
rfingers 7.12502
rthumb -15.0816 -22.158
lclavicle -4.30369e-014 -8.74653e-015
lhumerus -48.2903 -10.8258 86.2986
lradius 63.4772
lwrist 19.6997
lhand -22.5871 3.05612
lfingers 7.12502
lthumb 3.84183 33.0012
rfemur -18.3996 2.48001 24.9471
rtibia 39.5365
rfoot -25.8079 2.7496
rtoes -22.6905
lfemur -7.50268 8.33633 -13.0072
ltibia 54.7737
lfoot -41.7717 5.5935
ltoes -0.25096
